--40000LOG 04:33:27:105748000 Waiting for file /home/seluser/videos/vid_chrome_or_firefox_40000* to be created...
Won't start video recording due to VIDEO env var false
ffmpeg version 2.8.17-0ubuntu0.1 Copyright (c) 2000-2020 the FFmpeg developers
  built with gcc 5.4.0 (Ubuntu 5.4.0-6ubuntu1~16.04.12) 20160609
  configuration: --prefix=/usr --extra-version=0ubuntu0.1 --build-suffix=-ffmpeg --toolchain=hardened --libdir=/usr/lib/x86_64-linux-gnu --incdir=/usr/include/x86_64-linux-gnu --cc=cc --cxx=g++ --enable-gpl --enable-shared --disable-stripping --disable-decoder=libopenjpeg --disable-decoder=libschroedinger --enable-avresample --enable-avisynth --enable-gnutls --enable-ladspa --enable-libass --enable-libbluray --enable-libbs2b --enable-libcaca --enable-libcdio --enable-libflite --enable-libfontconfig --enable-libfreetype --enable-libfribidi --enable-libgme --enable-libgsm --enable-libmodplug --enable-libmp3lame --enable-libopenjpeg --enable-libopus --enable-libpulse --enable-librtmp --enable-libschroedinger --enable-libshine --enable-libsnappy --enable-libsoxr --enable-libspeex --enable-libssh --enable-libtheora --enable-libtwolame --enable-libvorbis --enable-libvpx --enable-libwavpack --enable-libwebp --enable-libx265 --enable-libxvid --enable-libzvbi --enable-openal --enable-opengl --enable-x11grab --enable-libdc1394 --enable-libiec61883 --enable-libzmq --enable-frei0r --enable-libx264 --enable-libopencv
  libavutil      54. 31.100 / 54. 31.100
  libavcodec     56. 60.100 / 56. 60.100
  libavformat    56. 40.101 / 56. 40.101
  libavdevice    56.  4.100 / 56.  4.100
  libavfilter     5. 40.101 /  5. 40.101
  libavresample   2.  1.  0 /  2.  1.  0
  libswscale      3.  1.101 /  3.  1.101
  libswresample   1.  2.101 /  1.  2.101
  libpostproc    53.  3.100 / 53.  3.100
Input #0, x11grab, from ':41.0':
  Duration: N/A, start: 1605062007.524866, bitrate: N/A
    Stream #0:0: Video: rawvideo (BGR[0] / 0x524742), bgr0, 1366x768, 10 fps, 10 tbr, 1000k tbn, 10 tbc
[libx264 @ 0x253f320] using cpu capabilities: MMX2 SSE2Fast SSSE3 SSE4.2 AVX FMA3 AVX2 LZCNT BMI2
[libx264 @ 0x253f320] profile Constrained Baseline, level 3.2
[libx264 @ 0x253f320] 264 - core 148 r2643 5c65704 - H.264/MPEG-4 AVC codec - Copyleft 2003-2015 - http://www.videolan.org/x264.html - options: cabac=0 ref=1 deblock=0:0:0 analyse=0:0 me=dia subme=0 psy=1 psy_rd=1.00:0.00 mixed_ref=0 me_range=16 chroma_me=1 trellis=0 8x8dct=0 cqm=0 deadzone=21,11 fast_pskip=1 chroma_qp_offset=0 threads=3 lookahead_threads=1 sliced_threads=0 nr=0 decimate=1 interlaced=0 bluray_compat=0 constrained_intra=0 bframes=0 weightp=0 keyint=250 keyint_min=10 scenecut=0 intra_refresh=0 rc=crf mbtree=0 crf=23.0 qcomp=0.60 qpmin=0 qpmax=69 qpstep=4 ip_ratio=1.40 aq=0
Output #0, matroska, to '/home/seluser/videos/vid_chrome_or_firefox_40000.mkv':
  Metadata:
    encoder         : Lavf56.40.101
    Stream #0:0: Video: h264 (libx264) (H264 / 0x34363248), yuv420p, 1366x768, q=-1--1, 10 fps, 1k tbn, 10 tbc
    Metadata:
      encoder         : Lavc56.60.100 libx264
Stream mapping:
  Stream #0:0 -> #0:0 (rawvideo (native) -> h264 (libx264))
Press [q] to stop, [?] for help
[swscaler @ 0x254aca0] Warning: data is not aligned! This can lead to a speedloss
frame=    8 fps=0.0 q=10.0 size=      25kB time=00:00:00.40 bitrate= 517.1kbits/s    
frame=   14 fps= 12 q=9.0 size=      28kB time=00:00:01.00 bitrate= 231.5kbits/s    
frame=   19 fps= 12 q=13.0 size=      31kB time=00:00:01.50 bitrate= 170.7kbits/s    
frame=   24 fps= 11 q=10.0 size=      53kB time=00:00:02.00 bitrate= 217.8kbits/s    
frame=   30 fps= 11 q=9.0 size=      55kB time=00:00:02.60 bitrate= 173.4kbits/s    
frame=   36 fps= 11 q=9.0 size=      57kB time=00:00:03.20 bitrate= 144.7kbits/s    
frame=   42 fps= 11 q=14.0 size=      83kB time=00:00:03.80 bitrate= 178.8kbits/s    
frame=   48 fps= 11 q=9.0 size=      96kB time=00:00:04.40 bitrate= 179.3kbits/s    
frame=   53 fps= 11 q=9.0 size=      99kB time=00:00:04.90 bitrate= 165.6kbits/s    
frame=   59 fps= 10 q=9.0 size=     100kB time=00:00:05.50 bitrate= 149.0kbits/s    
frame=   64 fps= 10 q=10.0 size=     118kB time=00:00:06.00 bitrate= 160.9kbits/s    
frame=   69 fps= 10 q=9.0 size=     124kB time=00:00:06.50 bitrate= 156.0kbits/s    
frame=   75 fps= 10 q=9.0 size=     125kB time=00:00:07.10 bitrate= 144.3kbits/s    
frame=   80 fps= 10 q=14.0 size=     161kB time=00:00:07.60 bitrate= 173.7kbits/s    
frame=   85 fps= 10 q=12.0 size=     215kB time=00:00:08.10 bitrate= 217.9kbits/s    
frame=   91 fps= 10 q=9.0 size=     243kB time=00:00:08.70 bitrate= 229.0kbits/s    
frame=   96 fps= 10 q=17.0 size=     248kB time=00:00:09.20 bitrate= 220.6kbits/s    
frame=  102 fps= 10 q=13.0 size=     299kB time=00:00:09.80 bitrate= 249.6kbits/s    
frame=  108 fps= 10 q=13.0 size=     340kB time=00:00:10.40 bitrate= 267.4kbits/s    
frame=  114 fps= 10 q=9.0 size=     356kB time=00:00:11.00 bitrate= 264.9kbits/s    
frame=  119 fps= 10 q=9.0 size=     364kB time=00:00:11.50 bitrate= 259.4kbits/s    
frame=  125 fps= 10 q=9.0 size=     366kB time=00:00:12.10 bitrate= 247.6kbits/s    
frame=  130 fps= 10 q=12.0 size=     368kB time=00:00:12.60 bitrate= 239.0kbits/s    
frame=  135 fps= 10 q=16.0 size=     391kB time=00:00:13.10 bitrate= 244.3kbits/s    
frame=  141 fps= 10 q=11.0 size=     453kB time=00:00:13.70 bitrate= 270.8kbits/s    
frame=  146 fps= 10 q=9.0 size=     466kB time=00:00:14.20 bitrate= 268.7kbits/s    
frame=  151 fps= 10 q=9.0 size=     466kB time=00:00:14.70 bitrate= 260.0kbits/s    
frame=  156 fps= 10 q=21.0 size=     471kB time=00:00:15.20 bitrate= 253.8kbits/s    
frame=  162 fps= 10 q=12.0 size=     623kB time=00:00:15.80 bitrate= 323.2kbits/s    
frame=  167 fps= 10 q=9.0 size=     678kB time=00:00:16.30 bitrate= 340.5kbits/s    
frame=  173 fps= 10 q=9.0 size=     689kB time=00:00:16.90 bitrate= 334.2kbits/s    
frame=  179 fps= 10 q=9.0 size=     690kB time=00:00:17.50 bitrate= 323.0kbits/s    
frame=  185 fps= 10 q=9.0 size=     691kB time=00:00:18.10 bitrate= 312.7kbits/s    
frame=  191 fps= 10 q=11.0 size=     726kB time=00:00:18.70 bitrate= 318.0kbits/s    
frame=  196 fps= 10 q=9.0 size=     737kB time=00:00:19.20 bitrate= 314.6kbits/s    
frame=  201 fps= 10 q=9.0 size=     740kB time=00:00:19.70 bitrate= 307.6kbits/s    
frame=  207 fps= 10 q=9.0 size=     740kB time=00:00:20.30 bitrate= 298.6kbits/s    
frame=  213 fps= 10 q=9.0 size=     740kB time=00:00:20.90 bitrate= 290.2kbits/s    
frame=  219 fps= 10 q=9.0 size=     741kB time=00:00:21.50 bitrate= 282.2kbits/s    
frame=  224 fps= 10 q=9.0 size=     741kB time=00:00:22.00 bitrate= 275.9kbits/s    
frame=  229 fps= 10 q=9.0 size=     741kB time=00:00:22.50 bitrate= 269.9kbits/s    
frame=  234 fps= 10 q=9.0 size=     742kB time=00:00:23.00 bitrate= 264.2kbits/s    
frame=  240 fps= 10 q=9.0 size=     742kB time=00:00:23.60 bitrate= 257.6kbits/s    
frame=  245 fps= 10 q=9.0 size=     742kB time=00:00:24.10 bitrate= 252.4kbits/s    
frame=  251 fps= 10 q=9.0 size=     743kB time=00:00:24.70 bitrate= 246.4kbits/s    
frame=  256 fps= 10 q=14.0 size=     864kB time=00:00:25.20 bitrate= 281.0kbits/s    
frame=  262 fps= 10 q=9.0 size=     865kB time=00:00:25.80 bitrate= 274.6kbits/s    
frame=  267 fps= 10 q=9.0 size=     865kB time=00:00:26.30 bitrate= 269.4kbits/s    
frame=  272 fps= 10 q=9.0 size=     865kB time=00:00:26.80 bitrate= 264.4kbits/s    
frame=  278 fps= 10 q=9.0 size=     865kB time=00:00:27.40 bitrate= 258.7kbits/s    
frame=  284 fps= 10 q=9.0 size=     866kB time=00:00:28.00 bitrate= 253.3kbits/s    
frame=  290 fps= 10 q=9.0 size=     866kB time=00:00:28.60 bitrate= 248.1kbits/s    
frame=  295 fps= 10 q=9.0 size=     866kB time=00:00:29.10 bitrate= 243.9kbits/s    
frame=  301 fps= 10 q=10.0 size=     870kB time=00:00:29.70 bitrate= 239.9kbits/s    
frame=  306 fps= 10 q=14.0 size=     875kB time=00:00:30.20 bitrate= 237.3kbits/s    
frame=  311 fps= 10 q=10.0 size=     900kB time=00:00:30.70 bitrate= 240.3kbits/s    
frame=  317 fps= 10 q=9.0 size=     903kB time=00:00:31.30 bitrate= 236.4kbits/s    
frame=  322 fps= 10 q=11.0 size=     933kB time=00:00:31.80 bitrate= 240.2kbits/s    
frame=  328 fps= 10 q=9.0 size=     944kB time=00:00:32.40 bitrate= 238.8kbits/s    
frame=  334 fps= 10 q=10.0 size=     945kB time=00:00:33.00 bitrate= 234.6kbits/s    
frame=  340 fps= 10 q=17.0 size=     949kB time=00:00:33.60 bitrate= 231.3kbits/s    
frame=  345 fps= 10 q=18.0 size=    1076kB time=00:00:34.10 bitrate= 258.4kbits/s    
frame=  351 fps= 10 q=10.0 size=    1164kB time=00:00:34.70 bitrate= 274.9kbits/s    
frame=  357 fps= 10 q=9.0 size=    1177kB time=00:00:35.30 bitrate= 273.1kbits/s    
frame=  363 fps= 10 q=9.0 size=    1177kB time=00:00:35.90 bitrate= 268.6kbits/s    
frame=  369 fps= 10 q=9.0 size=    1178kB time=00:00:36.50 bitrate= 264.3kbits/s    
frame=  375 fps= 10 q=9.0 size=    1178kB time=00:00:37.10 bitrate= 260.2kbits/s    
frame=  380 fps= 10 q=9.0 size=    1179kB time=00:00:37.60 bitrate= 256.8kbits/s    
frame=  385 fps= 10 q=9.0 size=    1179kB time=00:00:38.10 bitrate= 253.6kbits/s    
frame=  391 fps= 10 q=9.0 size=    1180kB time=00:00:38.70 bitrate= 249.8kbits/s    
frame=  397 fps= 10 q=9.0 size=    1180kB time=00:00:39.30 bitrate= 246.1kbits/s    
frame=  402 fps= 10 q=9.0 size=    1181kB time=00:00:39.80 bitrate= 243.1kbits/s    
frame=  407 fps= 10 q=9.0 size=    1181kB time=00:00:40.30 bitrate= 240.2kbits/s    
frame=  413 fps= 10 q=9.0 size=    1182kB time=00:00:40.90 bitrate= 236.8kbits/s    
frame=  419 fps= 10 q=9.0 size=    1183kB time=00:00:41.50 bitrate= 233.4kbits/s    
frame=  425 fps= 10 q=9.0 size=    1183kB time=00:00:42.10 bitrate= 230.2kbits/s    
frame=  430 fps= 10 q=9.0 size=    1184kB time=00:00:42.60 bitrate= 227.6kbits/s    
frame=  436 fps= 10 q=9.0 size=    1184kB time=00:00:43.20 bitrate= 224.6kbits/s    
frame=  442 fps= 10 q=9.0 size=    1185kB time=00:00:43.80 bitrate= 221.6kbits/s    
frame=  448 fps= 10 q=12.0 size=    1208kB time=00:00:44.40 bitrate= 222.8kbits/s    
frame=  453 fps= 10 q=9.0 size=    1216kB time=00:00:44.90 bitrate= 221.8kbits/s    
frame=  459 fps= 10 q=10.0 size=    1221kB time=00:00:45.50 bitrate= 219.9kbits/s    
frame=  464 fps= 10 q=9.0 size=    1222kB time=00:00:46.00 bitrate= 217.6kbits/s    
--40000LOG 04:34:13:983973700 Trapped SIGTERM or SIGINT so shutting down ffmpeg gracefully...
--40000LOG 04:34:14:016149600 Will kill VID_TOOL_PID=777 ...
frame=  466 fps= 10 q=-1.0 Lsize=    1222kB time=00:00:46.60 bitrate= 214.9kbits/s    
video:1218kB audio:0kB subtitle:0kB other streams:0kB global headers:0kB muxing overhead: 0.317342%
[libx264 @ 0x253f320] frame I:2     Avg QP:13.00  size: 69478
[libx264 @ 0x253f320] frame P:464   Avg QP:10.17  size:  2388
[libx264 @ 0x253f320] mb I  I16..4: 100.0%  0.0%  0.0%
[libx264 @ 0x253f320] mb P  I16..4:  2.0%  0.0%  0.0%  P16..4:  2.2%  0.0%  0.0%  0.0%  0.0%    skip:95.8%
[libx264 @ 0x253f320] coded y,uvDC,uvAC intra: 15.0% 9.0% 8.1% inter: 0.9% 1.0% 0.6%
[libx264 @ 0x253f320] i16 v,h,dc,p: 74% 24%  1%  1%
[libx264 @ 0x253f320] i8c dc,h,v,p: 83% 14%  3%  0%
[libx264 @ 0x253f320] kb/s:214.07
Exiting normally, received signal 2.
--40000LOG 04:34:15:027878000 Tried to kill -SIGTERM VID_TOOL_PID=777
--40000LOG 04:34:15:046475000 Waiting up to 6s for VID_TOOL_PID=777 to end with SIGTERM...
--40000LOG 04:34:15:085775200 wait_pid successfully managed to SIGTERM:VID_TOOL_PID=777 within less than 6s
--40000LOG 04:34:15:121209400 Will try to fix the videos...
--40000LOG 04:34:15:667470600 Fixing perms for /home/seluser/videos/vid_chrome_or_firefox_40000.mkv*
--40000LOG 04:34:15:709135600 Changing video encoding from mkv to mp4...
--40000LOG 04:34:20:392943900 Conversion from mkv to mp4 succeeded!
--40000LOG 04:34:20:402367100 Cleaning up /home/seluser/videos/vid_chrome_or_firefox_40000.mkv ...
--40000LOG 04:34:20:417981900 Optimizing /home/seluser/videos/vid_chrome_or_firefox_40000.mp4 for HTTP streaming...
--40000LOG 04:34:20:506677600 Succeeded to mp4box_retry.sh within 8s
--40000LOG 04:34:20:519515300 ffmpeg shutdown complete.
